<!-- Generator: Adobe Illustrator 24.2.3, SVG Export Plug-In  -->
<svg version="1.1" xmlns="http://www.w3.org/2000/svg" xmlns:xlink="http://www.w3.org/1999/xlink" x="0px" y="0px" width="365.9px"
	 height="38.1px" viewBox="0 0 365.9 38.1" style="overflow:visible;enable-background:new 0 0 365.9 38.1;" xml:space="preserve">
<style type="text/css">
	.st0{fill:#F90070;}
	.st1{fill:#B00063;}
	.st2{fill:#002137;}
	.st3{fill:#002137;stroke:#002137;stroke-width:0.3;stroke-miterlimit:10;}
</style>
<defs>
</defs>
<g>
	<g>
		<path class="st0" d="M323.2,5.7L306.9,0l-16.4,5.7l16.4,5.6l13.7-4.7L307.3,2l0.8-0.3l13.2,4.6L323.2,5.7L323.2,5.7z M321.2,8.3
			c0.4,0,0.7-0.3,0.7-0.7s-0.3-0.7-0.7-0.7c-0.4,0-0.7,0.3-0.7,0.7S320.8,8.3,321.2,8.3L321.2,8.3z M320.7,8.6l-0.3,0.6v4.9l0.2,0.2
			V9.5h0.2v5.2l0.2,0.2V9.5h0.2v5.4l0.2-0.2V9.5h0.2v4.9l0.2-0.2V9.2l-0.4-0.6H320.7L320.7,8.6z"/>
		<polygon class="st0" points="316.6,14 316.6,8.5 306.9,11.9 306.9,17.3 316.6,14 		"/>
		<polygon class="st1" points="297.2,14 297.2,8.5 306.9,11.9 306.9,17.3 297.2,14 		"/>
	</g>
	<g>
		<g>
			<g>
				<path class="st0" d="M342.7,33.6c-0.9,0-1.8-0.2-2.5-0.5c-0.8-0.3-1.4-0.8-2-1.4c-0.6-0.6-1-1.3-1.3-2.1
					c-0.3-0.8-0.5-1.7-0.5-2.6c0-0.9,0.2-1.7,0.5-2.5c0.3-0.8,0.7-1.5,1.3-2.1c0.5-0.6,1.2-1.1,1.9-1.4c0.8-0.4,1.6-0.5,2.4-0.5
					c0.9,0,1.8,0.2,2.6,0.5c0.7,0.4,1.4,0.8,1.9,1.5c0.5,0.6,0.9,1.3,1.1,2.1c0.3,0.8,0.4,1.6,0.4,2.5v0.8h-9.7
					c0.1,0.4,0.2,0.8,0.3,1.2c0.2,0.5,0.5,1,0.8,1.3c0.4,0.4,0.8,0.7,1.3,0.9c0.5,0.2,1.1,0.3,1.7,0.3c0.7,0,1.3-0.1,1.9-0.4
					c0.6-0.3,1.1-0.6,1.6-1.1l0.4-0.4l1.2,1.5l-0.3,0.3c-0.6,0.7-1.3,1.2-2.1,1.5C344.6,33.4,343.7,33.6,342.7,33.6z M333.3,33.6
					c-0.9,0-1.6-0.3-2.1-0.8c-0.4-0.5-0.7-1.2-0.7-2.2v-7.8h-1.9v-2.1h1.9v-3.2h2.2v3.2h2.4v2.1h-2.4v7.6c0,0.4,0.1,0.7,0.2,0.9
					c0.1,0.2,0.3,0.2,0.5,0.2c0.2,0,0.4,0,0.6-0.1c0.2-0.1,0.3-0.2,0.4-0.3l0.4-0.5l0.9,1.9l-0.2,0.2c-0.3,0.3-0.6,0.5-0.9,0.6
					C334.3,33.5,333.8,33.6,333.3,33.6z M312.4,33.6c-0.5,0-1.1-0.1-1.6-0.3c-0.5-0.2-1-0.5-1.5-0.8c-0.4-0.4-0.8-0.8-1-1.4
					c-0.3-0.6-0.4-1.2-0.4-1.9c0-0.7,0.1-1.3,0.4-1.9c0.3-0.5,0.6-1,1.1-1.4c0.4-0.4,0.9-0.6,1.5-0.8c0.5-0.2,1.1-0.3,1.6-0.3
					c1.4,0,2.5,0.4,3.5,1.1v-1.3c0-0.7-0.2-1.2-0.7-1.6c-0.5-0.4-1.2-0.6-1.9-0.6c-0.7,0-1.3,0.1-1.8,0.4c-0.5,0.2-1,0.6-1.5,1.2
					l-0.4,0.4l-1.3-1.6l0.3-0.3c0.7-0.7,1.4-1.2,2.1-1.6c0.8-0.4,1.7-0.5,2.7-0.5c0.6,0,1.2,0.1,1.8,0.2c0.6,0.2,1.1,0.4,1.5,0.8
					c0.4,0.4,0.8,0.8,1,1.3c0.2,0.5,0.4,1.2,0.4,1.9v8.7h-2.2v-0.8C314.9,33.2,313.8,33.6,312.4,33.6z M282.4,33.6
					c-1,0-1.9-0.2-2.7-0.5c-0.8-0.3-1.5-0.8-2.1-1.5l-0.3-0.3l1.4-1.7l0.4,0.4c0.3,0.4,0.8,0.8,1.4,1.1c0.6,0.3,1.3,0.5,2,0.5
					c0.9,0,1.5-0.2,2-0.6c0.4-0.4,0.7-0.8,0.7-1.3c0-0.4-0.1-0.7-0.4-0.9c-0.3-0.3-0.7-0.5-1.2-0.6c-0.5-0.2-1.1-0.3-1.7-0.5
					c-0.7-0.1-1.3-0.3-1.9-0.6c-0.6-0.3-1.1-0.6-1.5-1.1c-0.4-0.5-0.7-1.1-0.7-1.9c0-0.5,0.1-1,0.3-1.5c0.2-0.5,0.5-0.9,0.9-1.2
					c0.4-0.3,0.9-0.6,1.5-0.8c0.6-0.2,1.2-0.3,1.9-0.3c1.1,0,2,0.2,2.7,0.6c0.7,0.4,1.3,0.8,1.8,1.3l0.3,0.3l-1.3,1.7l-0.4-0.5
					c-0.3-0.4-0.7-0.7-1.2-1c-0.6-0.3-1.2-0.4-1.9-0.4c-0.8,0-1.4,0.2-1.9,0.5c-0.4,0.3-0.6,0.7-0.6,1.2c0,0.3,0.1,0.6,0.4,0.7
					c0.3,0.2,0.7,0.4,1.2,0.6c0.5,0.2,1,0.3,1.7,0.5c0.7,0.1,1.3,0.4,1.9,0.6c0.6,0.3,1.1,0.7,1.5,1.2c0.4,0.5,0.6,1.2,0.6,2.1
					c0,0.5-0.1,1-0.3,1.5c-0.2,0.5-0.5,0.9-1,1.3c-0.4,0.4-0.9,0.6-1.5,0.8C283.8,33.5,283.1,33.6,282.4,33.6z M305.5,33.3h-2.2
					v-8.6c0-0.7-0.2-1.3-0.5-1.7c-0.3-0.4-0.7-0.5-1.4-0.5c-0.3,0-0.5,0-0.8,0.1c-0.3,0.1-0.6,0.2-0.8,0.4c-0.3,0.2-0.5,0.4-0.7,0.6
					c-0.2,0.2-0.4,0.4-0.5,0.6v9.2h-2.2v-8.6c0-0.7-0.2-1.3-0.5-1.7c-0.3-0.4-0.7-0.5-1.4-0.5c-0.2,0-0.5,0-0.8,0.1
					c-0.3,0.1-0.6,0.2-0.8,0.4c-0.3,0.2-0.5,0.4-0.7,0.6c-0.2,0.2-0.4,0.4-0.5,0.6v9.1h-2.2V20.7h2.2v1c0.2-0.2,0.4-0.3,0.7-0.5
					c0.4-0.2,0.8-0.4,1.2-0.6c0.5-0.2,0.9-0.2,1.4-0.2c0.5,0,0.9,0.1,1.3,0.2c0.4,0.1,0.8,0.3,1,0.6c0.3,0.3,0.5,0.5,0.7,0.8
					c0,0,0.1,0.1,0.1,0.1c0.1-0.1,0.1-0.1,0.2-0.2c0.3-0.3,0.6-0.5,1-0.8c0.4-0.2,0.8-0.4,1.2-0.5c0.4-0.1,0.9-0.2,1.4-0.2
					c2.4,0,3.6,1.4,3.6,4V33.3z M353.1,33.3h-2.2V20.7h2.2V22c0.3-0.3,0.7-0.6,1-0.8c0.7-0.5,1.5-0.7,2.5-0.7h0.5v2.4l-0.6-0.2
					c-0.1,0-0.1,0-0.2,0H356c-0.2,0-0.5,0.1-0.8,0.2c-0.3,0.1-0.6,0.2-0.9,0.4c-0.3,0.2-0.5,0.4-0.8,0.6c-0.2,0.2-0.3,0.4-0.4,0.5
					V33.3z M322.8,33.3h-2.2V20.7h2.2V22c0.3-0.3,0.7-0.6,1-0.8c0.7-0.5,1.5-0.7,2.5-0.7h0.5v2.4l-0.6-0.2c-0.1,0-0.1,0-0.2,0h-0.3
					c-0.2,0-0.5,0-0.8,0.2c-0.3,0.1-0.6,0.3-0.9,0.4c-0.3,0.2-0.5,0.4-0.8,0.6c-0.2,0.2-0.3,0.4-0.4,0.6V33.3z M312.8,26.8
					c-0.9,0-1.5,0.2-2,0.7c-0.5,0.5-0.7,1-0.7,1.7c0,0.7,0.2,1.3,0.7,1.7c0.5,0.5,1.2,0.7,2,0.7c0.6,0,1.2-0.1,1.8-0.4
					c0.5-0.2,0.9-0.5,1.3-0.9v-2.2c-0.4-0.4-0.8-0.7-1.3-1C314.1,27,313.5,26.8,312.8,26.8z M338.7,26h7.5c0-0.3-0.1-0.6-0.2-0.9
					c-0.2-0.5-0.4-0.9-0.7-1.3c-0.3-0.4-0.7-0.7-1.2-0.9c-0.5-0.2-1-0.4-1.7-0.4c-0.6,0-1.2,0.1-1.6,0.4c-0.5,0.2-0.9,0.6-1.2,0.9
					c-0.3,0.4-0.6,0.8-0.7,1.3C338.8,25.4,338.8,25.7,338.7,26z"/>
			</g>
		</g>
		<g>
			<g>
				<path class="st2" d="M247.4,38.1c-0.5,0-0.9,0-1.4-0.1c-0.4-0.1-0.9-0.2-1.3-0.3c-0.4-0.1-0.8-0.3-1.2-0.6
					c-0.4-0.2-0.7-0.5-1.1-0.9l-0.3-0.3l1.3-1.7l0.4,0.4c0.5,0.6,1,0.9,1.5,1.1c0.5,0.2,1.2,0.3,2,0.3c0.5,0,1-0.1,1.4-0.2
					c0.4-0.1,0.8-0.3,1.1-0.6c0.3-0.3,0.6-0.6,0.7-1c0.2-0.4,0.3-0.9,0.3-1.5v-0.6c-0.3,0.3-0.6,0.5-1,0.7c-0.8,0.5-1.7,0.7-2.6,0.7
					c-0.8,0-1.6-0.2-2.3-0.5c-0.7-0.3-1.3-0.8-1.8-1.3c-0.5-0.6-0.9-1.3-1.1-2.1c-0.3-0.8-0.4-1.7-0.4-2.7c0-1,0.1-1.8,0.4-2.7
					c0.3-0.8,0.7-1.5,1.1-2.1c0.5-0.6,1.1-1,1.8-1.3c0.7-0.3,1.5-0.5,2.3-0.5c0.9,0,1.8,0.2,2.5,0.6c0.4,0.2,0.7,0.5,1.1,0.8v-1.1
					h2.2v12c0,1-0.2,1.8-0.5,2.5c-0.3,0.7-0.7,1.2-1.3,1.7c-0.5,0.4-1.2,0.7-1.8,0.9C248.8,38,248.1,38.1,247.4,38.1z M272.9,33.6
					c-0.9,0-1.6-0.3-2.1-0.8c-0.4-0.5-0.7-1.2-0.7-2.2v-7.8h-1.9v-2.1h1.9v-3.2h2.2v3.2h2.4v2.1h-2.4v7.6c0,0.4,0.1,0.7,0.2,0.9
					c0.1,0.2,0.3,0.2,0.5,0.2c0.2,0,0.4,0,0.6-0.1c0.2-0.1,0.3-0.2,0.4-0.3l0.4-0.5l0.9,1.9l-0.2,0.2c-0.3,0.3-0.6,0.5-0.9,0.6
					C273.9,33.5,273.5,33.6,272.9,33.6z M261.5,33.6c-0.9,0-1.8-0.2-2.5-0.5c-0.8-0.3-1.5-0.8-2-1.4c-0.6-0.6-1-1.3-1.3-2.1
					c-0.3-0.8-0.5-1.7-0.5-2.6c0-0.9,0.2-1.7,0.5-2.5c0.3-0.8,0.7-1.5,1.3-2.1c0.5-0.6,1.2-1.1,1.9-1.4c0.8-0.3,1.6-0.5,2.4-0.5
					c0.9,0,1.8,0.2,2.6,0.5c0.7,0.3,1.4,0.8,1.9,1.5c0.5,0.6,0.9,1.3,1.1,2.1c0.3,0.8,0.4,1.6,0.4,2.5v0.8h-9.7
					c0.1,0.4,0.2,0.8,0.3,1.2c0.2,0.5,0.5,1,0.8,1.3c0.4,0.4,0.8,0.7,1.3,0.9c0.5,0.2,1,0.3,1.7,0.3c0.7,0,1.3-0.1,1.9-0.4
					c0.6-0.3,1.1-0.6,1.6-1.1l0.4-0.4l1.2,1.5l-0.3,0.3c-0.6,0.7-1.3,1.2-2.1,1.5C263.5,33.4,262.5,33.6,261.5,33.6z M246,31.2
					c0.4,0.2,0.9,0.3,1.5,0.3c0.4,0,0.7-0.1,1.1-0.2c0.4-0.1,0.7-0.2,1-0.4c0.3-0.2,0.6-0.4,0.8-0.6c0.2-0.2,0.4-0.4,0.5-0.6v-5.4
					c-0.1-0.2-0.3-0.4-0.5-0.6c-0.2-0.2-0.5-0.4-0.8-0.6c-0.3-0.2-0.6-0.3-1-0.4c-0.9-0.3-1.8-0.2-2.6,0.2c-0.4,0.2-0.8,0.5-1.1,0.9
					c-0.3,0.4-0.5,0.9-0.7,1.4c-0.2,0.6-0.3,1.2-0.3,1.8c0,0.7,0.1,1.3,0.3,1.8c0.2,0.6,0.4,1,0.7,1.4C245.2,30.7,245.6,31,246,31.2
					z M257.5,26h7.5c0-0.3-0.1-0.6-0.2-0.9c-0.1-0.5-0.4-0.9-0.7-1.3c-0.3-0.4-0.7-0.7-1.2-0.9c-0.5-0.2-1-0.4-1.7-0.4
					c-0.6,0-1.2,0.1-1.6,0.4c-0.5,0.2-0.9,0.6-1.2,0.9c-0.3,0.4-0.6,0.8-0.7,1.3C257.7,25.4,257.6,25.7,257.5,26z"/>
			</g>
		</g>
	</g>
	<g>
		<path class="st2" d="M361.1,24.1h-0.6v-2.9h-1v-0.5h2.5v0.5h-1V24.1z M363.9,24.1l-0.9-2.6h0l0,0.6v2h-0.6v-3.4h0.9l0.9,2.6
			l0.9-2.6h0.8v3.4h-0.6v-2l0-0.6h0l-1,2.6H363.9z"/>
	</g>
	<g>
		<path class="st3" d="M9.7,26.8c0,2-0.5,3.5-1.6,4.5s-2.6,1.6-4.6,1.6H0.2V21h3.7c1.9,0,3.3,0.5,4.3,1.5C9.2,23.5,9.7,25,9.7,26.8z
			 M8.2,26.8c0-1.6-0.4-2.7-1.2-3.5c-0.8-0.8-1.9-1.2-3.5-1.2h-2v9.5h1.7c1.7,0,2.9-0.4,3.7-1.2C7.8,29.6,8.2,28.4,8.2,26.8z"/>
		<path class="st3" d="M15.9,33c-1.3,0-2.4-0.4-3.1-1.2s-1.1-1.9-1.1-3.4c0-1.4,0.4-2.6,1.1-3.4s1.7-1.3,2.9-1.3
			c1.1,0,2,0.4,2.7,1.1c0.7,0.7,1,1.7,1,2.9v0.9H13c0,1,0.3,1.8,0.8,2.4c0.5,0.5,1.2,0.8,2.1,0.8c1,0,1.9-0.2,2.9-0.6v1.2
			c-0.5,0.2-0.9,0.4-1.4,0.4C17,33,16.5,33,15.9,33z M15.5,24.9c-0.7,0-1.3,0.2-1.7,0.7s-0.7,1.1-0.8,1.9h4.7c0-0.9-0.2-1.5-0.6-2
			C16.8,25.1,16.2,24.9,15.5,24.9z"/>
		<path class="st3" d="M22.8,32.9h-1.4V20.2h1.4V32.9z"/>
		<path class="st3" d="M25.6,21.5c0-0.3,0.1-0.5,0.2-0.7s0.3-0.2,0.6-0.2c0.2,0,0.4,0.1,0.6,0.2c0.2,0.1,0.2,0.4,0.2,0.7
			S27.1,22,27,22.2s-0.3,0.2-0.6,0.2c-0.2,0-0.4-0.1-0.6-0.2S25.6,21.8,25.6,21.5z M27.1,32.9h-1.4v-8.9h1.4V32.9z"/>
		<path class="st3" d="M31.9,32.9l-3.4-8.9H30l1.9,5.3c0.4,1.2,0.7,2,0.8,2.4h0.1c0.1-0.3,0.2-0.9,0.6-1.8c0.3-0.9,1-2.9,2.1-5.9
			h1.5l-3.4,8.9H31.9z"/>
		<path class="st3" d="M42.1,33c-1.3,0-2.4-0.4-3.1-1.2s-1.1-1.9-1.1-3.4c0-1.4,0.4-2.6,1.1-3.4s1.7-1.3,2.9-1.3
			c1.1,0,2,0.4,2.7,1.1c0.7,0.7,1,1.7,1,2.9v0.9h-6.2c0,1,0.3,1.8,0.8,2.4c0.5,0.5,1.2,0.8,2.1,0.8c1,0,1.9-0.2,2.9-0.6v1.2
			c-0.5,0.2-0.9,0.4-1.4,0.4C43.2,33,42.7,33,42.1,33z M41.7,24.9c-0.7,0-1.3,0.2-1.7,0.7s-0.7,1.1-0.8,1.9h4.7c0-0.9-0.2-1.5-0.6-2
			C43,25.1,42.4,24.9,41.7,24.9z"/>
		<path class="st3" d="M51.8,23.8c0.4,0,0.8,0,1.1,0.1l-0.2,1.3c-0.4-0.1-0.7-0.1-1-0.1c-0.7,0-1.3,0.3-1.9,0.9
			c-0.5,0.6-0.8,1.3-0.8,2.2v4.8h-1.4v-8.9h1.1l0.2,1.7H49c0.3-0.6,0.7-1,1.2-1.3C50.7,23.9,51.2,23.8,51.8,23.8z"/>
		<path class="st3" d="M58.3,33c-1.3,0-2.4-0.4-3.1-1.2S54,29.9,54,28.5c0-1.4,0.4-2.6,1.1-3.4s1.7-1.3,2.9-1.3c1.1,0,2,0.4,2.7,1.1
			c0.7,0.7,1,1.7,1,2.9v0.9h-6.2c0,1,0.3,1.8,0.8,2.4c0.5,0.5,1.2,0.8,2.1,0.8c1,0,1.9-0.2,2.9-0.6v1.2c-0.5,0.2-0.9,0.4-1.4,0.4
			C59.4,33,58.9,33,58.3,33z M57.9,24.9c-0.7,0-1.3,0.2-1.7,0.7s-0.7,1.1-0.8,1.9h4.7c0-0.9-0.2-1.5-0.6-2
			C59.1,25.1,58.6,24.9,57.9,24.9z"/>
		<path class="st3" d="M69.9,31.7L69.9,31.7c-0.7,0.9-1.6,1.4-2.9,1.4c-1.2,0-2.1-0.4-2.7-1.2s-1-1.9-1-3.4s0.3-2.6,1-3.4
			c0.7-0.8,1.6-1.2,2.7-1.2c1.2,0,2.1,0.4,2.8,1.3H70l-0.1-0.6l0-0.6v-3.6h1.4v12.7h-1.1L69.9,31.7z M67.2,31.9c0.9,0,1.6-0.3,2-0.8
			c0.4-0.5,0.6-1.3,0.6-2.4v-0.3c0-1.3-0.2-2.2-0.6-2.7c-0.4-0.5-1.1-0.8-2-0.8c-0.8,0-1.4,0.3-1.8,0.9c-0.4,0.6-0.6,1.5-0.6,2.6
			c0,1.1,0.2,2,0.6,2.6C65.8,31.6,66.4,31.9,67.2,31.9z"/>
		<path class="st3" d="M78.3,21.5c0-0.3,0.1-0.5,0.2-0.7s0.3-0.2,0.6-0.2c0.2,0,0.4,0.1,0.6,0.2c0.2,0.1,0.2,0.4,0.2,0.7
			s-0.1,0.5-0.2,0.7s-0.3,0.2-0.6,0.2c-0.2,0-0.4-0.1-0.6-0.2S78.3,21.8,78.3,21.5z M79.8,32.9h-1.4v-8.9h1.4V32.9z"/>
		<path class="st3" d="M88.8,32.9v-5.8c0-0.7-0.2-1.3-0.5-1.6c-0.3-0.4-0.9-0.5-1.6-0.5c-0.9,0-1.6,0.3-2.1,0.8
			C84.2,26.2,84,27,84,28.2v4.7h-1.4v-8.9h1.1l0.2,1.2H84c0.3-0.4,0.7-0.8,1.2-1s1.1-0.4,1.7-0.4c1.1,0,1.9,0.3,2.4,0.8
			c0.5,0.5,0.8,1.3,0.8,2.5v5.8H88.8z"/>
		<path class="st3" d="M100.8,33c-1.3,0-2.3-0.4-3-1.2s-1.1-1.9-1.1-3.4c0-1.5,0.4-2.7,1.1-3.5s1.7-1.2,3.1-1.2c0.4,0,0.9,0,1.3,0.1
			c0.4,0.1,0.8,0.2,1,0.3l-0.4,1.1c-0.3-0.1-0.6-0.2-1-0.3s-0.7-0.1-0.9-0.1c-1.8,0-2.7,1.2-2.7,3.5c0,1.1,0.2,1.9,0.7,2.5
			c0.4,0.6,1.1,0.9,2,0.9c0.7,0,1.5-0.2,2.3-0.5v1.2C102.5,32.9,101.7,33,100.8,33z"/>
		<path class="st3" d="M112.9,28.4c0,1.5-0.4,2.6-1.1,3.4c-0.7,0.8-1.7,1.2-3,1.2c-0.8,0-1.5-0.2-2.1-0.6c-0.6-0.4-1.1-0.9-1.4-1.6
			c-0.3-0.7-0.5-1.5-0.5-2.5c0-1.5,0.4-2.6,1.1-3.4s1.7-1.2,3-1.2c1.2,0,2.2,0.4,3,1.2C112.5,25.9,112.9,27,112.9,28.4z M106.1,28.4
			c0,1.1,0.2,2,0.7,2.6c0.5,0.6,1.1,0.9,2,0.9c0.9,0,1.6-0.3,2-0.9s0.7-1.5,0.7-2.6c0-1.1-0.2-2-0.7-2.6s-1.1-0.9-2-0.9
			c-0.9,0-1.6,0.3-2,0.9S106.1,27.2,106.1,28.4z"/>
		<path class="st3" d="M116.6,32.9h-1.4V20.2h1.4V32.9z"/>
		<path class="st3" d="M120.9,32.9h-1.4V20.2h1.4V32.9z"/>
		<path class="st3" d="M129.2,32.9l-0.3-1.3h-0.1c-0.4,0.6-0.9,0.9-1.3,1.1c-0.4,0.2-1,0.3-1.7,0.3c-0.9,0-1.6-0.2-2.1-0.7
			c-0.5-0.5-0.8-1.1-0.8-1.9c0-1.8,1.4-2.8,4.3-2.8l1.5,0V27c0-0.7-0.2-1.2-0.5-1.6c-0.3-0.3-0.8-0.5-1.4-0.5
			c-0.7,0-1.6,0.2-2.5,0.7l-0.4-1c0.4-0.2,0.9-0.4,1.4-0.6c0.5-0.1,1.1-0.2,1.6-0.2c1.1,0,1.9,0.2,2.4,0.7s0.8,1.2,0.8,2.3v6.1
			H129.2z M126.2,31.9c0.8,0,1.5-0.2,2-0.7c0.5-0.5,0.7-1.1,0.7-1.9v-0.8l-1.4,0.1c-1.1,0-1.9,0.2-2.3,0.5c-0.5,0.3-0.7,0.8-0.7,1.4
			c0,0.5,0.1,0.9,0.4,1.1C125.2,31.8,125.6,31.9,126.2,31.9z"/>
		<path class="st3" d="M137.2,23.8c1.2,0,2.1,0.4,2.7,1.2c0.6,0.8,1,1.9,1,3.4s-0.3,2.6-1,3.4c-0.7,0.8-1.6,1.2-2.7,1.2
			c-0.6,0-1.1-0.1-1.6-0.3c-0.5-0.2-0.9-0.5-1.2-1h-0.1l-0.3,1.1h-1V20.2h1.4v3.1c0,0.7,0,1.3-0.1,1.9h0.1
			C135,24.2,135.9,23.8,137.2,23.8z M137,24.9c-0.9,0-1.6,0.3-2,0.8s-0.6,1.4-0.6,2.7c0,1.3,0.2,2.2,0.6,2.7c0.4,0.5,1.1,0.8,2,0.8
			c0.8,0,1.5-0.3,1.9-0.9c0.4-0.6,0.6-1.5,0.6-2.6c0-1.2-0.2-2-0.6-2.6S137.8,24.9,137,24.9z"/>
		<path class="st3" d="M151,28.4c0,1.5-0.4,2.6-1.1,3.4c-0.7,0.8-1.7,1.2-3,1.2c-0.8,0-1.5-0.2-2.1-0.6c-0.6-0.4-1.1-0.9-1.4-1.6
			c-0.3-0.7-0.5-1.5-0.5-2.5c0-1.5,0.4-2.6,1.1-3.4s1.7-1.2,3-1.2c1.2,0,2.2,0.4,3,1.2C150.6,25.9,151,27,151,28.4z M144.2,28.4
			c0,1.1,0.2,2,0.7,2.6c0.5,0.6,1.1,0.9,2,0.9c0.9,0,1.6-0.3,2-0.9s0.7-1.5,0.7-2.6c0-1.1-0.2-2-0.7-2.6s-1.1-0.9-2-0.9
			c-0.9,0-1.6,0.3-2,0.9S144.2,27.2,144.2,28.4z"/>
		<path class="st3" d="M157.4,23.8c0.4,0,0.8,0,1.1,0.1l-0.2,1.3c-0.4-0.1-0.7-0.1-1-0.1c-0.7,0-1.3,0.3-1.9,0.9
			c-0.5,0.6-0.8,1.3-0.8,2.2v4.8h-1.4v-8.9h1.1l0.2,1.7h0.1c0.3-0.6,0.7-1,1.2-1.3C156.3,23.9,156.9,23.8,157.4,23.8z"/>
		<path class="st3" d="M165.6,32.9l-0.3-1.3h-0.1c-0.4,0.6-0.9,0.9-1.3,1.1c-0.4,0.2-1,0.3-1.7,0.3c-0.9,0-1.6-0.2-2.1-0.7
			c-0.5-0.5-0.8-1.1-0.8-1.9c0-1.8,1.4-2.8,4.3-2.8l1.5,0V27c0-0.7-0.2-1.2-0.5-1.6c-0.3-0.3-0.8-0.5-1.4-0.5
			c-0.7,0-1.6,0.2-2.5,0.7l-0.4-1c0.4-0.2,0.9-0.4,1.4-0.6c0.5-0.1,1.1-0.2,1.6-0.2c1.1,0,1.9,0.2,2.4,0.7s0.8,1.2,0.8,2.3v6.1
			H165.6z M162.6,31.9c0.8,0,1.5-0.2,2-0.7c0.5-0.5,0.7-1.1,0.7-1.9v-0.8l-1.4,0.1c-1.1,0-1.9,0.2-2.3,0.5c-0.5,0.3-0.7,0.8-0.7,1.4
			c0,0.5,0.1,0.9,0.4,1.1C161.6,31.8,162.1,31.9,162.6,31.9z"/>
		<path class="st3" d="M172.3,31.9c0.2,0,0.5,0,0.7-0.1c0.2,0,0.4-0.1,0.5-0.1v1c-0.1,0.1-0.4,0.1-0.6,0.2c-0.3,0-0.5,0.1-0.8,0.1
			c-1.7,0-2.6-0.9-2.6-2.7V25h-1.3v-0.7l1.3-0.6l0.6-1.9h0.8v2.1h2.6V25h-2.6v5.3c0,0.5,0.1,1,0.4,1.2
			C171.5,31.8,171.9,31.9,172.3,31.9z"/>
		<path class="st3" d="M175.2,21.5c0-0.3,0.1-0.5,0.2-0.7s0.3-0.2,0.6-0.2c0.2,0,0.4,0.1,0.6,0.2c0.2,0.1,0.2,0.4,0.2,0.7
			s-0.1,0.5-0.2,0.7s-0.3,0.2-0.6,0.2c-0.2,0-0.4-0.1-0.6-0.2S175.2,21.8,175.2,21.5z M176.7,32.9h-1.4v-8.9h1.4V32.9z"/>
		<path class="st3" d="M187.3,28.4c0,1.5-0.4,2.6-1.1,3.4c-0.7,0.8-1.7,1.2-3,1.2c-0.8,0-1.5-0.2-2.1-0.6c-0.6-0.4-1.1-0.9-1.4-1.6
			c-0.3-0.7-0.5-1.5-0.5-2.5c0-1.5,0.4-2.6,1.1-3.4s1.7-1.2,3-1.2c1.2,0,2.2,0.4,3,1.2C186.9,25.9,187.3,27,187.3,28.4z M180.5,28.4
			c0,1.1,0.2,2,0.7,2.6c0.5,0.6,1.1,0.9,2,0.9c0.9,0,1.6-0.3,2-0.9s0.7-1.5,0.7-2.6c0-1.1-0.2-2-0.7-2.6s-1.1-0.9-2-0.9
			c-0.9,0-1.6,0.3-2,0.9S180.5,27.2,180.5,28.4z"/>
		<path class="st3" d="M195.8,32.9v-5.8c0-0.7-0.2-1.3-0.5-1.6c-0.3-0.4-0.9-0.5-1.6-0.5c-0.9,0-1.6,0.3-2.1,0.8
			c-0.4,0.5-0.7,1.3-0.7,2.5v4.7h-1.4v-8.9h1.1l0.2,1.2h0.1c0.3-0.4,0.7-0.8,1.2-1s1.1-0.4,1.7-0.4c1.1,0,1.9,0.3,2.4,0.8
			c0.5,0.5,0.8,1.3,0.8,2.5v5.8H195.8z"/>
		<path class="st3" d="M211.5,32.9l-1.6-5.2c-0.1-0.3-0.3-1-0.6-2.2h-0.1c-0.2,1-0.4,1.7-0.6,2.2l-1.7,5.2h-1.6l-2.4-8.9h1.4
			c0.6,2.2,1,4,1.3,5.1c0.3,1.2,0.5,2,0.5,2.4h0.1c0.1-0.3,0.2-0.7,0.3-1.2c0.1-0.5,0.2-0.9,0.3-1.2l1.6-5.1h1.5l1.6,5.1
			c0.3,0.9,0.5,1.7,0.6,2.4h0.1c0-0.2,0.1-0.5,0.2-0.9s0.7-2.6,1.7-6.6h1.4l-2.5,8.9H211.5z"/>
		<path class="st3" d="M217.1,21.5c0-0.3,0.1-0.5,0.2-0.7s0.3-0.2,0.6-0.2c0.2,0,0.4,0.1,0.6,0.2c0.2,0.1,0.2,0.4,0.2,0.7
			s-0.1,0.5-0.2,0.7s-0.3,0.2-0.6,0.2c-0.2,0-0.4-0.1-0.6-0.2S217.1,21.8,217.1,21.5z M218.6,32.9h-1.4v-8.9h1.4V32.9z"/>
		<path class="st3" d="M224.3,31.9c0.2,0,0.5,0,0.7-0.1c0.2,0,0.4-0.1,0.5-0.1v1c-0.1,0.1-0.4,0.1-0.6,0.2c-0.3,0-0.5,0.1-0.8,0.1
			c-1.7,0-2.6-0.9-2.6-2.7V25h-1.3v-0.7l1.3-0.6l0.6-1.9h0.8v2.1h2.6V25h-2.6v5.3c0,0.5,0.1,1,0.4,1.2
			C223.5,31.8,223.9,31.9,224.3,31.9z"/>
		<path class="st3" d="M233.5,32.9v-5.8c0-0.7-0.2-1.3-0.5-1.6c-0.3-0.4-0.9-0.5-1.6-0.5c-0.9,0-1.6,0.3-2.1,0.8s-0.6,1.3-0.6,2.5
			v4.7h-1.4V20.2h1.4V24c0,0.5,0,0.8-0.1,1.1h0.1c0.3-0.4,0.6-0.8,1.1-1c0.5-0.2,1.1-0.4,1.7-0.4c1.1,0,1.9,0.3,2.5,0.8
			c0.5,0.5,0.8,1.3,0.8,2.5v5.8H233.5z"/>
	</g>
</g>
</svg>
