<!-- Generator: Adobe Illustrator 24.2.3, SVG Export Plug-In  -->
<svg version="1.1" xmlns="http://www.w3.org/2000/svg" xmlns:xlink="http://www.w3.org/1999/xlink" x="0px" y="0px" width="224px"
	 height="56px" viewBox="0 0 224 56" style="overflow:visible;enable-background:new 0 0 224 56;" xml:space="preserve">
<style type="text/css">
	.st0{fill:#E3120B;}
	.st1{fill:#FFFFFF;}
</style>
<defs>
</defs>
<g>
	<g>
		<rect x="0" y="0" class="st0" width="112" height="56"/>
		<g>
			<path class="st1" d="M51.7,11.6l0.1,2.7l-0.6,0c-0.1-1.7-0.4-1.9-2.9-1.9h-0.5v9.5c0,1.3,0.3,1.7,1.6,1.7l0,0.5
				c-1.2,0-2.2,0-2.7,0c-0.6,0-1.6,0-2.8,0l0-0.5c1.3,0,1.6-0.4,1.6-1.7v-9.5h-0.6c-2.6,0-2.9,0.2-3,1.9l-0.6,0l0.1-2.7
				c2.4,0,4.1,0,5.3,0C47.7,11.6,49.4,11.6,51.7,11.6"/>
			<path class="st1" d="M52.8,23.6c1.2,0,1.3-0.2,1.4-1.9v-7.9c0-1.6-0.2-1.9-1.4-1.9l0-0.4c1.6-0.1,2-0.1,3.4-0.4v5.4
				c0.9-1,1.7-1.4,2.7-1.4c1.7,0,2.7,1,2.7,3v3.6c0,1.6,0.2,1.9,1.3,1.9l0,0.4c-1,0-1.8-0.1-2.3-0.1c-0.5,0-1.2,0-2.2,0.1l0-0.4
				c0.9-0.1,1-0.3,1-1.9v-2.6c0-2.2-0.4-2.9-1.5-2.9c-0.6,0-1.3,0.4-1.6,1c-0.1,0.2-0.2,0.4-0.2,0.7c0,0.1,0,0.2,0,0.2v3.7
				c0,1.6,0.1,1.7,1,1.9l0,0.4c-1,0-1.7-0.1-2.2-0.1c-0.5,0-1.3,0-2.3,0.1L52.8,23.6z"/>
			<path class="st1" d="M71.3,22.3c-1.1,1.3-2.2,1.9-3.5,1.9c-2.4,0-4.1-1.8-4.1-4.4c0-2.8,1.7-4.7,4.2-4.7c1.3,0,2.3,0.5,2.9,1.5
				c0.4,0.7,0.6,1.2,0.6,2.5h-5.5c0.1,2.6,1,4.1,2.6,4.1c0.9,0,1.7-0.4,2.6-1.4L71.3,22.3z M65.7,18.5c1.6,0,2.1-0.1,3.7-0.2
				c-0.2-1.7-0.8-2.5-1.9-2.5C66.5,15.7,65.9,16.6,65.7,18.5"/>
			<g>
				<path class="st1" d="M6.7,40.1c1.4,0,1.8-0.4,1.8-1.9v-9.1c0-1.5-0.4-1.8-1.8-1.9l-0.1-0.5l3,0l4.7-0.1l1.2,0l0.1,2.8l-0.8,0.1
					c-0.1-1.8-0.5-2-3.2-2h-0.4l-0.2,0V33c0.4,0,0.7,0,0.8,0c0.3,0,0.6,0,0.9,0c1.5,0,1.9-0.3,1.9-1.8h0.7c-0.1,1.2-0.1,1.7-0.1,2.3
					c0,0.5,0,1.1,0,2h-0.6c-0.1-1.4-0.4-1.7-1.8-1.7l-1.1,0L11,34v4c0,1.6,0.1,1.7,1.7,1.7c2.2,0,2.8-0.5,3-2.3l0.8,0l-0.4,3.2
					l-1.5,0l-4.7,0l-3.2,0L6.7,40.1z"/>
				<path class="st1" d="M26.3,39.3c-1.1,1.1-2,1.6-3.3,1.6c-2.6,0-4.2-2-4.2-5c0-3.1,1.7-5.1,4.5-5.1c0.7,0,1.5,0.1,2.6,0.4l0,2.3
					l-0.9,0.1c-0.3-1.7-0.7-2.1-1.8-2.1c-1.5,0-2.2,1.3-2.2,3.8c0,2.9,0.9,4.6,2.6,4.6c0.9,0,1.5-0.4,2.3-1.2L26.3,39.3z"/>
				<path class="st1" d="M28.4,36.2v-0.3c0-3.3,1.8-5.1,4.8-5.1c2.8,0,4.8,2.1,4.8,5.1c0,3-1.9,5-4.8,5C30.4,40.9,28.5,39,28.4,36.2
					 M30.8,36c0.2,2.7,1.1,4.2,2.6,4.2c1.4,0,2.2-1.4,2.2-3.9c0-2.9-1.2-4.8-2.7-4.8c-1.4,0-2.1,1.2-2.1,3.6
					C30.8,35.4,30.8,35.7,30.8,36"/>
				<path class="st1" d="M40.3,40.2c1.3,0,1.5-0.3,1.5-2.1v-4.5c0-1.8-0.2-2-1.5-2l0-0.4c1.7-0.1,2.1-0.2,3.6-0.5l0.1,1.7
					c1.1-1.2,2-1.7,3.1-1.7c1.9,0,3,1.2,3,3.4v2.3v1.6c0,0.2,0,0.3,0,0.5c0,1.2,0.3,1.6,1.5,1.6l0,0.5c-1.1,0-2-0.1-2.5-0.1
					c-0.5,0-1.4,0-2.4,0.1l0-0.5c1-0.2,1.1-0.3,1.1-2.1l0-1.2v-1.7c0-2.4-0.4-3.2-1.7-3.2c-0.8,0-1.4,0.4-1.8,1.1
					C44.1,33.4,44,33.8,44,34v4.1c0,1.7,0.1,1.9,1.1,2.1l0.1,0.5c-1.1,0-1.9-0.1-2.4-0.1c-0.6,0-1.4,0-2.5,0.1L40.3,40.2z"/>
				<path class="st1" d="M53.1,36.2v-0.3c0-3.3,1.8-5.1,4.8-5.1c2.8,0,4.8,2.1,4.8,5.1c0,3-1.9,5-4.9,5C55.1,40.9,53.2,39,53.1,36.2
					 M55.5,36c0.2,2.7,1.1,4.2,2.6,4.2c1.4,0,2.2-1.4,2.2-3.9c0-2.9-1.1-4.8-2.7-4.8c-1.4,0-2.1,1.2-2.1,3.6
					C55.5,35.4,55.5,35.7,55.5,36"/>
				<path class="st1" d="M64.9,40.2c1.3,0,1.5-0.3,1.5-2.1v-4.5c0-1.8-0.2-2-1.5-2l0-0.4c1.7-0.1,2.1-0.2,3.6-0.5l0.1,1.7
					c1.1-1.2,2-1.7,3.1-1.7c1.3,0,2.1,0.5,2.6,1.8c1.2-1.3,2.1-1.8,3.2-1.8c1.8,0,2.9,1.2,2.9,3.4v2.3v1.6c0,0.2,0,0.3,0,0.5
					c0,1.2,0.4,1.6,1.5,1.6l0,0.5c-1.1,0-2-0.1-2.5-0.1c-0.5,0-1.3,0-2.4,0.1l0-0.5c1-0.2,1.1-0.3,1.1-2.1v-2.9
					c0-2.4-0.4-3.2-1.6-3.2c-0.7,0-1.5,0.4-1.8,1.1c-0.1,0.2-0.2,0.5-0.3,0.7c0,0.1,0,0.2,0,0.2v4.1c0,1.7,0.1,1.9,1.1,2.1l0,0.5
					c-1,0-1.8-0.1-2.3-0.1c-0.5,0-1.3,0-2.3,0.1l0-0.5c1-0.2,1.1-0.3,1.1-2.1v-2.9c0-2.4-0.4-3.2-1.6-3.2c-0.7,0-1.4,0.4-1.8,1.1
					c-0.2,0.3-0.3,0.8-0.3,0.9v4.1c0,1.7,0.1,1.9,1.1,2.1l0,0.5c-1.1,0-1.9-0.1-2.4-0.1c-0.6,0-1.4,0-2.5,0.1L64.9,40.2z"/>
				<path class="st1" d="M87.3,30.7v6.2l0,1.2c0,1.8,0.2,2.1,1.5,2.1l0,0.5c-1.2,0-2.1-0.1-2.7-0.1c-0.6,0-1.4,0-2.6,0.1l0-0.5
					c1.3,0,1.5-0.3,1.5-2.1l0-1.2v-2l0-1.2c0-1.8-0.2-2-1.5-2l0-0.4C85.3,31.1,85.8,31,87.3,30.7 M84.8,27.5c0-0.7,0.6-1.3,1.3-1.3
					c0.7,0,1.3,0.6,1.3,1.3c0,0.7-0.6,1.3-1.3,1.3C85.4,28.8,84.8,28.2,84.8,27.5"/>
				<path class="st1" d="M91.2,40.3l-0.1-2l1,0c0.4,1.5,0.7,1.8,1.8,1.8c0.9,0,1.5-0.5,1.5-1.2c0-0.7-0.4-1.1-1.6-2
					c-0.6-0.4-1-0.7-1.3-0.9c-0.5-0.4-0.9-0.9-1.1-1.4c-0.1-0.3-0.2-0.6-0.2-1c0-1.7,1.2-2.9,3-2.9c0.7,0,1.1,0.1,2.6,0.4l0,1.9
					l-1,0c-0.2-1.3-0.6-1.7-1.5-1.7c-0.9,0-1.5,0.5-1.5,1.2c0,0.7,0.3,1.1,1.3,1.7c0.9,0.6,1.6,1.1,2.1,1.6c0.5,0.5,0.9,1.2,0.9,1.9
					c0,1.7-1.4,3-3.3,3C93.2,40.9,92.5,40.7,91.2,40.3"/>
				<path class="st1" d="M99.2,31.3c1.5-0.1,2.1-0.8,2.6-2.8h0.9v2.6h2.5l-0.3,1.1h-2.2V37c0,2.3,0.3,2.9,1.6,2.9
					c0.3,0,0.6,0,1.1-0.2v0.6c-0.7,0.4-1.6,0.6-2.5,0.6c-0.9,0-1.7-0.5-2-1.2c-0.3-0.6-0.4-1.2-0.4-2.5v-4.9h-1.2V31.3z"/>
			</g>
		</g>
	</g>
	<rect x="112" width="112" height="56"/>
	<g>
		<path class="st1" d="M135,24.2v-9.1h5v1.5h-3.5v2.2h3.2v1.4h-3.2v2.5h3.7v1.5H135z"/>
		<path class="st1" d="M141.3,24.2l3-4.8l-2.7-4.2h1.8c1.2,2,1.7,2.7,2,3.3c0.3-0.5,0.7-1.3,2-3.3h1.7l-2.7,4.3l3,4.7h-1.8
			c-1.6-2.5-2-3.2-2.3-3.7c-0.3,0.5-0.7,1.2-2.2,3.7H141.3z"/>
		<path class="st1" d="M151.1,24.2v-9.1h5v1.5h-3.5v2.2h3.2v1.4h-3.2v2.5h3.7v1.5H151.1z"/>
		<path class="st1" d="M161.9,24.3c-2.3,0-4.1-1.8-4.1-4.6c0-2.9,1.8-4.7,4.1-4.7c1.2,0,2,0.2,2.6,0.7v1.6c-0.6-0.7-1.5-0.9-2.3-0.9
			c-1.7,0-2.8,1.2-2.8,3.3c0,2.2,1.3,3.2,2.9,3.2c0.9,0,1.6-0.3,2.3-0.8v1.5C163.9,24.1,163.1,24.3,161.9,24.3z"/>
		<path class="st1" d="M168.1,15.1v5.2c0,0.6,0.1,1.1,0.2,1.5c0.2,0.7,0.9,1.1,1.7,1.1c1,0,1.6-0.4,1.8-1.2c0.1-0.4,0.2-0.9,0.2-1.4
			v-5.2h1.5v5.2c0,0.9-0.1,1.6-0.3,2.2c-0.4,1.2-1.6,1.8-3.2,1.8c-1.5,0-2.6-0.6-3.1-1.8c-0.2-0.6-0.3-1.3-0.3-2.2v-5.3H168.1z"/>
		<path class="st1" d="M177.6,24.2v-7.6h-2.4v-1.5h6.3v1.5h-2.4v7.6H177.6z"/>
		<path class="st1" d="M183.3,24.2v-9.1h1.5v9.1H183.3z"/>
		<path class="st1" d="M189.6,24.2l-3.2-9.1h1.7c1.8,5.4,2,6.1,2.3,6.9c0.2-0.8,0.4-1.5,2.2-6.9h1.6l-3.2,9.1H189.6z"/>
		<path class="st1" d="M195.7,24.2v-9.1h5v1.5h-3.5v2.2h3.2v1.4h-3.2v2.5h3.7v1.5H195.7z"/>
		<path class="st1" d="M132.7,40.8v-9.1h5v1.5h-3.5v2.2h3.2v1.4h-3.2v2.5h3.7v1.5H132.7z"/>
		<path class="st1" d="M140.1,31.8h2.1c1,0,2.1,0.1,2.8,0.4c1.5,0.6,2.2,2,2.2,4.1c0,2.1-0.7,3.5-2.4,4.2c-0.7,0.3-1.7,0.4-2.8,0.4
			h-1.9V31.8z M142.4,39.4c0.6,0,1.4-0.1,1.9-0.3c0.9-0.5,1.3-1.4,1.3-2.8c0-1.2-0.3-2.2-1.2-2.7c-0.4-0.3-1.2-0.3-1.8-0.3h-0.9v6.2
			H142.4z"/>
		<path class="st1" d="M150.7,31.8V37c0,0.6,0.1,1.1,0.2,1.5c0.2,0.7,0.9,1.1,1.7,1.1c1,0,1.6-0.4,1.8-1.2c0.1-0.4,0.2-0.9,0.2-1.4
			v-5.2h1.5V37c0,0.9-0.1,1.6-0.3,2.2c-0.4,1.2-1.6,1.8-3.2,1.8c-1.5,0-2.6-0.6-3.1-1.8c-0.2-0.6-0.3-1.3-0.3-2.2v-5.3H150.7z"/>
		<path class="st1" d="M162.2,41c-2.3,0-4.1-1.8-4.1-4.6c0-2.9,1.8-4.7,4.1-4.7c1.2,0,2,0.2,2.6,0.7v1.6c-0.6-0.7-1.5-0.9-2.3-0.9
			c-1.7,0-2.8,1.2-2.8,3.3c0,2.2,1.3,3.2,2.9,3.2c0.9,0,1.6-0.3,2.3-0.8v1.5C164.1,40.8,163.3,41,162.2,41z"/>
		<path class="st1" d="M166,40.8l3.2-9.1h1.4l3.2,9.1h-1.6l-0.8-2.3h-2.9l-0.8,2.3H166z M171,37.1c-0.8-2.2-0.9-2.6-1-3.1
			c-0.2,0.6-0.3,0.9-1,3.1H171z"/>
		<path class="st1" d="M176.4,40.8v-7.6H174v-1.5h6.3v1.5h-2.4v7.6H176.4z"/>
		<path class="st1" d="M182.1,40.8v-9.1h1.5v9.1H182.1z"/>
		<path class="st1" d="M189.7,41c-2.3,0-4-1.8-4-4.7c0-2.8,1.7-4.7,4.1-4.7c2.5,0,3.9,1.9,3.9,4.6C193.7,39.2,192.1,41,189.7,41z
			 M189.8,33.1c-1.5,0-2.5,1.1-2.5,3.2c0,2.1,1,3.2,2.4,3.2c1.5,0,2.4-1.1,2.4-3.2C192.1,34.2,191.2,33.1,189.8,33.1z"/>
		<path class="st1" d="M195.8,40.8v-9.1h1.4c3.1,4.6,3.4,5.1,4,6.1c0-1.1-0.1-2.3-0.1-6.1h1.5v9.1h-1.3c-3.2-4.9-3.6-5.6-4-6.3
			c0,0.8,0,1.3,0,6.3H195.8z"/>
	</g>
</g>
</svg>
